<?xml version="1.0" encoding="utf-8"?>
<!-- Generator: Adobe Illustrator 16.0.0, SVG Export Plug-In . SVG Version: 6.00 Build 0)  -->
<!DOCTYPE svg PUBLIC "-//W3C//DTD SVG 1.1//EN" "http://www.w3.org/Graphics/SVG/1.1/DTD/svg11.dtd">
<svg version="1.1" id="Layer_1" xmlns="http://www.w3.org/2000/svg" xmlns:xlink="http://www.w3.org/1999/xlink" x="0px" y="0px"
	 width="64.15px" height="64.109px" viewBox="0 0 64.15 64.109" enable-background="new 0 0 64.15 64.109" xml:space="preserve">
<g id="XMLID_8_">
	<path fill="#464646" d="M48.717,64.109c-0.9,0-2.273-0.144-4.2-0.438c-1.955-0.298-4.27-1.009-7.075-2.172
		c-2.743-1.137-5.882-2.856-9.327-5.11c-3.453-2.257-7.177-5.396-11.065-9.326c-3.077-3.034-5.675-5.99-7.71-8.778
		c-2.031-2.781-3.693-5.398-4.939-7.778c-1.246-2.381-2.197-4.579-2.826-6.533c-0.628-1.951-1.06-3.661-1.285-5.086
		c-0.233-1.464-0.324-2.603-0.275-3.479c0.041-0.73,0.063-1.149,0.064-1.254c0.001-0.048,0.005-0.105,0.012-0.152
		c0.104-0.723,0.335-1.461,0.689-2.194c0.363-0.757,0.825-1.393,1.371-1.885l8.677-8.678C11.652,0.419,12.624,0,13.713,0
		c0.815,0,1.548,0.242,2.179,0.718c0.538,0.4,1.005,0.907,1.385,1.503c0.016,0.025,0.03,0.051,0.044,0.078l7.016,13.306
		c0.513,0.911,0.663,1.945,0.432,3.043c-0.219,1.043-0.696,1.936-1.417,2.656l-3.154,3.155c-0.007,0.015-0.012,0.03-0.017,0.047
		c-0.015,0.039-0.023,0.07-0.029,0.093c0.169,0.772,0.52,1.673,1.042,2.681c0.5,1,1.284,2.238,2.339,3.693s2.579,3.16,4.53,5.066
		c1.926,1.972,3.644,3.508,5.12,4.584c1.479,1.078,2.718,1.874,3.687,2.367c1.157,0.591,1.766,0.788,2.072,0.85l0.607,0.123
		c0.021-0.007,0.043-0.014,0.067-0.022c0.014-0.005,0.028-0.009,0.043-0.016l3.674-3.74c0.019-0.019,0.036-0.037,0.056-0.055
		c0.996-0.88,2.171-1.326,3.494-1.326c0.85,0,1.573,0.15,2.154,0.448c0.091,0.025,0.176,0.059,0.247,0.1l12.651,7.472
		c1.206,0.745,1.929,1.719,2.166,2.904c0.005,0.025,0.008,0.05,0.012,0.075c0.176,1.341-0.251,2.57-1.234,3.554l-8.721,8.656
		c-0.448,0.5-1.082,0.96-1.843,1.327c-0.729,0.354-1.468,0.586-2.194,0.69c-0.052,0.008-0.105,0.011-0.158,0.011
		c-0.021,0.002-0.123,0.013-0.278,0.028C49.423,64.094,49.106,64.109,48.717,64.109z M2.306,14.261
		c-0.008,0.191-0.029,0.616-0.066,1.271c-0.039,0.705,0.046,1.716,0.252,3.005c0.207,1.313,0.612,2.912,1.205,4.753
		c0.59,1.833,1.491,3.913,2.68,6.183c1.194,2.282,2.797,4.805,4.763,7.497c1.966,2.691,4.484,5.557,7.486,8.516
		c3.788,3.828,7.388,6.866,10.709,9.037c3.331,2.178,6.346,3.833,8.962,4.917c2.6,1.078,4.808,1.76,6.559,2.028
		c1.788,0.273,3.088,0.412,3.862,0.412c0.31,0,0.563-0.01,0.756-0.027c0.158-0.017,0.283-0.027,0.37-0.033
		c0.485-0.075,0.991-0.238,1.502-0.485c0.5-0.242,0.902-0.53,1.199-0.858l8.76-8.696c0.482-0.484,0.676-1.008,0.602-1.648
		c-0.121-0.547-0.489-1.004-1.124-1.396l-12.475-7.367c-0.084-0.025-0.163-0.058-0.229-0.098c-0.178-0.107-0.53-0.234-1.195-0.234
		c-0.761,0-1.411,0.243-1.988,0.743l-3.707,3.773c-0.216,0.218-0.498,0.381-0.864,0.504c-0.449,0.149-0.72,0.192-1.004,0.136
		L38.5,46.028c-0.653-0.131-1.52-0.475-2.646-1.05c-1.086-0.555-2.39-1.389-3.985-2.551c-1.578-1.149-3.389-2.768-5.384-4.81
		c-2.023-1.976-3.631-3.776-4.76-5.333c-1.124-1.553-1.972-2.896-2.52-3.989c-0.651-1.257-1.084-2.417-1.279-3.437
		c-0.013-0.069-0.019-0.139-0.019-0.209c0-0.259,0.051-0.537,0.156-0.849c0.121-0.364,0.285-0.647,0.499-0.86l3.211-3.211
		c0.416-0.416,0.682-0.918,0.813-1.539c0.119-0.569,0.054-1.052-0.209-1.518L15.37,3.382c-0.229-0.351-0.503-0.646-0.814-0.879
		c-0.249-0.188-0.515-0.273-0.843-0.273c-0.489,0-0.905,0.188-1.31,0.591L3.685,11.54c-0.37,0.335-0.657,0.739-0.896,1.235
		C2.542,13.285,2.381,13.784,2.306,14.261z M39.692,43.911L39.692,43.911L39.692,43.911z M20.141,24.517l-0.002,0.001
		C20.14,24.517,20.14,24.517,20.141,24.517z M20.21,24.429L20.21,24.429L20.21,24.429z"/>
</g>
</svg>
