<?xml version="1.0" encoding="utf-8"?>
<!-- Generator: Adobe Illustrator 16.0.0, SVG Export Plug-In . SVG Version: 6.00 Build 0)  -->
<!DOCTYPE svg PUBLIC "-//W3C//DTD SVG 1.1//EN" "http://www.w3.org/Graphics/SVG/1.1/DTD/svg11.dtd">
<svg version="1.1" id="Layer_1" xmlns="http://www.w3.org/2000/svg" xmlns:xlink="http://www.w3.org/1999/xlink" x="0px" y="0px"
	 width="68.768px" height="64.623px" viewBox="0 0 68.768 64.623" enable-background="new 0 0 68.768 64.623" xml:space="preserve">
<g id="open_2_">
	<g>
		<path fill="#464646" d="M64.846,52.862l-52.73,11.642c-2.692,0.594-5.366-1.112-5.961-3.804L0.118,33.358
			c-0.595-2.692,1.112-5.366,3.805-5.96l52.729-11.642c2.692-0.595,5.366,1.112,5.96,3.804l6.037,27.342
			C69.244,49.594,67.537,52.268,64.846,52.862z M4.354,29.351c-1.615,0.357-2.64,1.961-2.282,3.576l6.036,27.342
			c0.356,1.615,1.961,2.639,3.577,2.282l52.729-11.642c1.615-0.357,2.639-1.961,2.282-3.576l-6.037-27.342
			c-0.356-1.615-1.96-2.639-3.575-2.282L4.354,29.351z"/>
	</g>
	<g>
		<g>
			<path fill="#464646" d="M44.504,16.39c-0.25,0.055-0.521,0.015-0.754-0.134l-14.305-9.13c-0.467-0.298-0.603-0.915-0.306-1.381
				c0.298-0.466,0.915-0.602,1.381-0.305l14.306,9.13c0.466,0.297,0.602,0.916,0.305,1.381
				C44.981,16.184,44.753,16.335,44.504,16.39z"/>
		</g>
		<g>
			<path fill="#464646" d="M15.209,22.858c-0.25,0.055-0.521,0.015-0.754-0.134c-0.466-0.297-0.603-0.916-0.305-1.381l9.131-14.305
				c0.297-0.465,0.915-0.602,1.381-0.305s0.602,0.915,0.305,1.381L15.836,22.42C15.688,22.652,15.459,22.803,15.209,22.858z"/>
		</g>
		<g>
			<path fill="#464646" d="M27.269,7.906c-2.153,0.476-4.292-0.89-4.768-3.044c-0.476-2.153,0.89-4.292,3.043-4.768
				c2.154-0.476,4.293,0.889,4.769,3.043S29.423,7.431,27.269,7.906z M25.976,2.048c-1.077,0.237-1.76,1.307-1.522,2.384
				c0.238,1.077,1.308,1.76,2.385,1.521c1.077-0.238,1.76-1.307,1.521-2.384C28.122,2.492,27.053,1.81,25.976,2.048z"/>
		</g>
	</g>
	<g>
		<g>
			<path fill="#464646" d="M18.316,50.846c-3.34,0.738-6.508-1.645-7.368-5.542c-0.86-3.897,1.01-7.392,4.35-8.129
				c3.34-0.737,6.508,1.645,7.368,5.542S21.656,50.109,18.316,50.846z M15.729,39.128c-2.264,0.5-3.453,2.917-2.828,5.745
				c0.625,2.829,2.721,4.52,4.983,4.02c2.264-0.5,3.452-2.916,2.828-5.745C20.088,40.32,17.992,38.629,15.729,39.128z"/>
		</g>
		<g>
			<path fill="#464646" d="M27.104,48.906c-0.539,0.119-1.073-0.221-1.191-0.761l-2.588-11.718
				c-0.119-0.539,0.222-1.073,0.762-1.192l3.905-0.862c2.692-0.594,5.366,1.113,5.96,3.804c0.595,2.692-1.112,5.367-3.804,5.961
				l-2.93,0.647l0.646,2.929C27.984,48.253,27.644,48.787,27.104,48.906z M26.787,42.832l2.93-0.647
				c1.615-0.356,2.64-1.961,2.282-3.576c-0.356-1.615-1.961-2.639-3.576-2.283l-2.93,0.647L26.787,42.832z"/>
		</g>
		<g>
			<g>
				<path fill="#464646" d="M44.364,38.951l-6.835,1.509c-0.54,0.119-1.073-0.222-1.192-0.761c-0.119-0.539,0.222-1.073,0.761-1.192
					l6.835-1.509c0.54-0.119,1.073,0.222,1.192,0.761C45.244,38.298,44.903,38.832,44.364,38.951z"/>
			</g>
			<g>
				<path fill="#464646" d="M46.634,44.594l-7.812,1.725c-0.539,0.119-1.073-0.222-1.192-0.761L35.043,33.84
					c-0.119-0.539,0.222-1.073,0.761-1.192l7.813-1.725c0.539-0.119,1.072,0.222,1.191,0.761s-0.221,1.073-0.761,1.192l-6.835,1.509
					l2.155,9.765l6.836-1.509c0.539-0.119,1.073,0.222,1.192,0.761C47.514,43.941,47.174,44.475,46.634,44.594z"/>
			</g>
		</g>
		<g>
			<path fill="#464646" d="M58.352,42.007c-0.32,0.071-0.663-0.02-0.908-0.256l-8.018-7.704l1.875,8.493
				c0.119,0.54-0.222,1.073-0.761,1.192s-1.073-0.221-1.191-0.761l-2.588-11.718c-0.095-0.43,0.104-0.873,0.487-1.088
				c0.383-0.217,0.864-0.154,1.183,0.151l8.017,7.704l-1.875-8.493c-0.119-0.539,0.222-1.073,0.761-1.192
				c0.54-0.119,1.073,0.222,1.192,0.761l2.587,11.718c0.096,0.43-0.103,0.873-0.487,1.088
				C58.538,41.952,58.446,41.986,58.352,42.007z"/>
		</g>
	</g>
</g>
</svg>
