<?xml version="1.0" encoding="utf-8"?>
<!-- Generator: Adobe Illustrator 16.0.0, SVG Export Plug-In . SVG Version: 6.00 Build 0)  -->
<!DOCTYPE svg PUBLIC "-//W3C//DTD SVG 1.1//EN" "http://www.w3.org/Graphics/SVG/1.1/DTD/svg11.dtd">
<svg version="1.1" id="Layer_1" xmlns="http://www.w3.org/2000/svg" xmlns:xlink="http://www.w3.org/1999/xlink" x="0px" y="0px"
	 width="52.539px" height="50.106px" viewBox="0 0 52.539 50.106" enable-background="new 0 0 52.539 50.106" xml:space="preserve">
<g opacity="0.2">
	<defs>
		<rect id="SVGID_1_" x="-344.896" y="-99.647" opacity="0.2" width="189" height="115"/>
	</defs>
	<clipPath id="SVGID_2_">
		<use xlink:href="#SVGID_1_"  overflow="visible"/>
	</clipPath>
	<g clip-path="url(#SVGID_2_)">
		
			<image overflow="visible" width="1920" height="2368" xlink:href="store locator sara/store locator sara/Store page - Layout 1.png"  transform="matrix(1 0 0 1 -448.8965 -1229.7563)">
		</image>
	</g>
</g>
<g>
	
		<rect x="1.103" y="1.103" fill="none" stroke="#464646" stroke-width="2.2056" stroke-miterlimit="10" width="22.856" height="47.9"/>
	
		<rect x="28.579" y="1.103" fill="none" stroke="#464646" stroke-width="2.2056" stroke-miterlimit="10" width="22.856" height="47.9"/>
	<g>
		<g>
			<path fill="#464646" d="M40.102,23.655c-1.819,0-3.299-1.44-3.299-3.212c0-1.771,1.48-3.211,3.299-3.211s3.298,1.44,3.298,3.211
				C43.4,22.214,41.921,23.655,40.102,23.655z M40.102,17.926c-1.436,0-2.604,1.129-2.604,2.517c0,1.389,1.168,2.518,2.604,2.518
				s2.604-1.129,2.604-2.518C42.706,19.055,41.538,17.926,40.102,17.926z"/>
		</g>
		<g>
			<path fill="#464646" d="M40.096,30.686c-0.266,0-0.521-0.08-0.738-0.231c-1.273-0.888-5.457-4.186-5.835-9.344
				c-0.263-3.585,2.41-6.754,5.959-7.063c3.919-0.344,7.217,2.622,7.217,6.313c0,5.57-4.485,9.133-5.859,10.091
				C40.621,30.605,40.363,30.686,40.096,30.686z M40.097,15.409c-0.164,0-0.329,0.007-0.495,0.022
				c-2.796,0.244-4.902,2.747-4.694,5.579c0.328,4.476,3.982,7.414,5.189,8.268c1.293-0.913,5.213-4.084,5.213-8.916
				C45.31,17.63,42.972,15.409,40.097,15.409z"/>
		</g>
	</g>
	
		<line fill="none" stroke="#464646" stroke-width="2.0134" stroke-linecap="round" stroke-linejoin="round" stroke-miterlimit="10" x1="6.103" y1="7.103" x2="18.603" y2="7.103"/>
	
		<line fill="none" stroke="#464646" stroke-width="2.0134" stroke-linecap="round" stroke-linejoin="round" stroke-miterlimit="10" x1="6.103" y1="13.02" x2="18.603" y2="13.02"/>
	
		<line fill="none" stroke="#464646" stroke-width="2.0134" stroke-linecap="round" stroke-linejoin="round" stroke-miterlimit="10" x1="6.103" y1="24.853" x2="18.603" y2="24.853"/>
	<g>
		
			<line fill="none" stroke="#464646" stroke-width="2.0134" stroke-linecap="round" stroke-linejoin="round" stroke-miterlimit="10" x1="6.103" y1="30.791" x2="12.603" y2="30.749"/>
		
			<line fill="none" stroke="#464646" stroke-width="2.0134" stroke-linecap="round" stroke-linejoin="round" stroke-miterlimit="10" x1="15.853" y1="30.77" x2="18.478" y2="30.77"/>
	</g>
	<g>
		
			<line fill="none" stroke="#464646" stroke-width="2.0134" stroke-linecap="round" stroke-linejoin="round" stroke-miterlimit="10" x1="11.978" y1="18.937" x2="18.603" y2="18.937"/>
		
			<line fill="none" stroke="#464646" stroke-width="2.0134" stroke-linecap="round" stroke-linejoin="round" stroke-miterlimit="10" x1="6.353" y1="18.937" x2="8.978" y2="18.937"/>
	</g>
	
		<line fill="none" stroke="#464646" stroke-width="2.0134" stroke-linecap="round" stroke-linejoin="round" stroke-miterlimit="10" x1="6.103" y1="36.686" x2="18.603" y2="36.686"/>
	
		<line fill="none" stroke="#464646" stroke-width="2.0134" stroke-linecap="round" stroke-linejoin="round" stroke-miterlimit="10" x1="6.103" y1="42.603" x2="18.603" y2="42.603"/>
</g>
</svg>
