<?xml version="1.0" encoding="utf-8"?>
<!-- Generator: Adobe Illustrator 16.0.0, SVG Export Plug-In . SVG Version: 6.00 Build 0)  -->
<!DOCTYPE svg PUBLIC "-//W3C//DTD SVG 1.1//EN" "http://www.w3.org/Graphics/SVG/1.1/DTD/svg11.dtd">
<svg version="1.1" id="Layer_1" xmlns="http://www.w3.org/2000/svg" xmlns:xlink="http://www.w3.org/1999/xlink" x="0px" y="0px"
	 width="52.539px" height="50.106px" viewBox="0 0 52.539 50.106" enable-background="new 0 0 52.539 50.106" xml:space="preserve">
<g opacity="0.2">
	<defs>
		<rect id="SVGID_1_" x="-430.229" y="-99.647" opacity="0.2" width="189" height="115"/>
	</defs>
	<clipPath id="SVGID_2_">
		<use xlink:href="#SVGID_1_"  overflow="visible"/>
	</clipPath>
	<g clip-path="url(#SVGID_2_)">
		
			<image overflow="visible" width="1920" height="2368" xlink:href="store locator sara/store locator sara/Store page - Layout 1.png"  transform="matrix(1 0 0 1 -534.2295 -1229.7563)">
		</image>
	</g>
</g>
<g>
	
		<rect x="28.579" y="1.103" fill="none" stroke="#464646" stroke-width="2.2056" stroke-miterlimit="10" width="22.856" height="47.9"/>
	
		<rect x="1.103" y="1.103" fill="none" stroke="#464646" stroke-width="2.2056" stroke-miterlimit="10" width="22.856" height="47.9"/>
	<g>
		<g>
			<path fill="#464646" d="M9.138,20.443c0-1.771,1.479-3.211,3.298-3.211s3.299,1.44,3.299,3.211c0,1.771-1.48,3.212-3.299,3.212
				S9.138,22.214,9.138,20.443z M9.833,20.443c0,1.389,1.168,2.518,2.604,2.518s2.604-1.129,2.604-2.518
				c0-1.388-1.168-2.517-2.604-2.517S9.833,19.055,9.833,20.443z"/>
		</g>
		<g>
			<path fill="#464646" d="M11.699,30.452c-1.374-0.958-5.859-4.521-5.859-10.091c0-3.691,3.298-6.658,7.217-6.313
				c3.549,0.309,6.222,3.478,5.959,7.063c-0.378,5.158-4.562,8.456-5.835,9.344c-0.217,0.151-0.472,0.231-0.738,0.231
				C12.175,30.686,11.918,30.605,11.699,30.452z M7.229,20.361c0,4.832,3.92,8.003,5.213,8.916c1.207-0.854,4.861-3.792,5.189-8.268
				c0.208-2.832-1.898-5.335-4.694-5.579c-0.167-0.015-0.332-0.022-0.495-0.022C9.567,15.409,7.229,17.63,7.229,20.361z"/>
		</g>
	</g>
	
		<line fill="none" stroke="#464646" stroke-width="2.0134" stroke-linecap="round" stroke-linejoin="round" stroke-miterlimit="10" x1="46.436" y1="7.103" x2="33.936" y2="7.103"/>
	
		<line fill="none" stroke="#464646" stroke-width="2.0134" stroke-linecap="round" stroke-linejoin="round" stroke-miterlimit="10" x1="46.436" y1="13.02" x2="33.936" y2="13.02"/>
	
		<line fill="none" stroke="#464646" stroke-width="2.0134" stroke-linecap="round" stroke-linejoin="round" stroke-miterlimit="10" x1="46.436" y1="24.853" x2="33.936" y2="24.853"/>
	<g>
		
			<line fill="none" stroke="#464646" stroke-width="2.0134" stroke-linecap="round" stroke-linejoin="round" stroke-miterlimit="10" x1="46.436" y1="30.791" x2="39.936" y2="30.749"/>
		
			<line fill="none" stroke="#464646" stroke-width="2.0134" stroke-linecap="round" stroke-linejoin="round" stroke-miterlimit="10" x1="36.686" y1="30.77" x2="34.061" y2="30.77"/>
	</g>
	<g>
		
			<line fill="none" stroke="#464646" stroke-width="2.0134" stroke-linecap="round" stroke-linejoin="round" stroke-miterlimit="10" x1="40.561" y1="18.937" x2="33.936" y2="18.937"/>
		
			<line fill="none" stroke="#464646" stroke-width="2.0134" stroke-linecap="round" stroke-linejoin="round" stroke-miterlimit="10" x1="46.186" y1="18.937" x2="43.561" y2="18.937"/>
	</g>
	
		<line fill="none" stroke="#464646" stroke-width="2.0134" stroke-linecap="round" stroke-linejoin="round" stroke-miterlimit="10" x1="46.436" y1="36.686" x2="33.936" y2="36.686"/>
	
		<line fill="none" stroke="#464646" stroke-width="2.0134" stroke-linecap="round" stroke-linejoin="round" stroke-miterlimit="10" x1="46.436" y1="42.603" x2="33.936" y2="42.603"/>
</g>
</svg>
