<?xml version="1.0" encoding="utf-8"?>
<!-- Generator: Adobe Illustrator 16.0.0, SVG Export Plug-In . SVG Version: 6.00 Build 0)  -->
<!DOCTYPE svg PUBLIC "-//W3C//DTD SVG 1.1//EN" "http://www.w3.org/Graphics/SVG/1.1/DTD/svg11.dtd">
<svg version="1.1" id="Layer_1" xmlns="http://www.w3.org/2000/svg" xmlns:xlink="http://www.w3.org/1999/xlink" x="0px" y="0px"
	 width="65.746px" height="65.748px" viewBox="0 0 65.746 65.748" enable-background="new 0 0 65.746 65.748" xml:space="preserve">
<g>
	<path fill="#464646" stroke="#464646" stroke-width="0.2835" stroke-miterlimit="10" d="M28.972,7.912
		c3.789,0.625,7.228,2.391,9.946,5.109c2.59,2.59,4.326,5.857,5.02,9.448c0.084,0.434,0.463,0.735,0.889,0.735
		c0.057,0,0.115-0.006,0.173-0.017c0.491-0.095,0.813-0.571,0.718-1.063c-0.763-3.947-2.671-7.539-5.518-10.386
		c-2.987-2.988-6.768-4.929-10.933-5.616c-0.495-0.082-0.96,0.253-1.042,0.748S28.478,7.831,28.972,7.912z"/>
	<path fill="#464646" stroke="#464646" stroke-width="0.2835" stroke-miterlimit="10" d="M65.075,56.591l-17.09-17.09
		c6.118-9.954,4.871-23.188-3.744-31.803c-4.873-4.873-11.362-7.557-18.271-7.557S12.571,2.826,7.698,7.698
		c-10.075,10.075-10.075,26.468,0,36.543c4.873,4.872,11.361,7.556,18.271,7.557c0.001,0,0.001,0,0.002,0
		c4.856,0,9.504-1.328,13.53-3.809l17.087,17.087c0.342,0.342,0.797,0.53,1.283,0.53c0.485,0,0.94-0.188,1.282-0.53l5.92-5.92
		C65.781,58.449,65.781,57.298,65.075,56.591z M25.969,49.984c-6.426,0-12.459-2.496-16.989-7.025
		c-9.367-9.368-9.367-24.61,0-33.979c4.53-4.53,10.564-7.025,16.989-7.025c6.425,0,12.458,2.495,16.989,7.025
		c9.368,9.368,9.368,24.61,0,33.979c-1.177,1.177-2.456,2.215-3.815,3.109c-0.008,0.005-0.017,0.01-0.024,0.016
		c-3.871,2.538-8.401,3.9-13.147,3.9C25.971,49.984,25.97,49.984,25.969,49.984z M57.872,63.794L41.041,46.963
		c1.127-0.813,2.199-1.72,3.2-2.722c1.007-1.007,1.913-2.079,2.719-3.2l16.833,16.833L57.872,63.794z"/>
</g>
</svg>
