<svg width="116" height="42" viewBox="0 0 116 42" fill="none" xmlns="http://www.w3.org/2000/svg">
<path d="M23.7345 22.4302C22.7262 21.7253 21.5768 21.2423 20.3636 21.0138L16.9651 20.2063C16.0801 20.0375 15.2183 19.7665 14.3972 19.3989C14.1047 19.2565 13.8601 19.0333 13.6931 18.7565C13.5261 18.4797 13.4436 18.1609 13.4558 17.8388C13.4474 17.4879 13.5302 17.1407 13.6962 16.8304C13.8622 16.5202 14.106 16.2572 14.4041 16.0666C15.1697 15.6075 16.057 15.3858 16.9513 15.4302C17.7771 15.4042 18.5975 15.5706 19.3462 15.916C19.8129 16.1518 20.2047 16.5104 20.4782 16.9523C20.7518 17.3942 20.8966 17.9023 20.8966 18.4204H24.8627C24.8784 17.5075 24.6774 16.6036 24.2759 15.7813C23.8745 14.959 23.2836 14.2412 22.5509 13.6853C21.0106 12.569 19.1372 11.9934 17.2281 12.0499C14.7433 12.0499 12.8537 12.6247 11.5731 13.7811C10.9499 14.3235 10.4541 14.9941 10.1205 15.7458C9.78689 16.4976 9.62359 17.3123 9.642 18.133C9.642 20.049 10.3065 21.4563 11.6354 22.3549C12.9656 23.0934 14.4152 23.5981 15.9199 23.8466L17.9964 24.3051C18.936 24.473 19.8441 24.7822 20.689 25.222C20.9477 25.3704 21.1616 25.5843 21.3089 25.8417C21.4561 26.0991 21.5312 26.3907 21.5265 26.6863C21.5427 27.2013 21.3807 27.7064 21.0674 28.1182C20.754 28.53 20.308 28.8238 19.803 28.9512C19.0369 29.1845 18.237 29.2908 17.4358 29.266C15.8092 29.266 14.6671 28.8691 13.975 28.0617C13.5484 27.4749 13.2923 26.7839 13.2343 26.0636H9.32361C9.28085 26.9779 9.4588 27.8892 9.84273 28.722C10.2267 29.5549 10.8056 30.2855 11.5316 30.8535C13.0036 32.0167 15.0247 32.5983 17.595 32.5983C20.1075 32.5983 22.0595 32.0099 23.4369 30.8261C24.0988 30.2896 24.6294 29.6121 24.989 28.8443C25.3486 28.0764 25.5278 27.2381 25.5134 26.3921C25.5528 25.6399 25.4123 24.8892 25.1032 24.2008C24.7941 23.5124 24.3252 22.9058 23.7345 22.4302Z" fill="#393D40"/>
<path d="M31.9637 12.6108H27.7969V32.2013H31.9637V12.6108Z" fill="#393D40"/>
<path d="M50.6661 15.5054C49.8505 14.3412 48.6713 13.4734 47.3091 13.0352C46.3184 12.7452 45.2897 12.6023 44.2566 12.611H35.7568V32.1124H44.2566C45.5931 32.1809 46.922 31.8757 48.0912 31.2318C49.2603 30.588 50.2222 29.6316 50.8668 28.4722C51.9734 26.4574 52.5181 24.1879 52.4449 21.8964C52.4379 20.8097 52.3126 19.7269 52.0712 18.6667C51.8204 17.531 51.3427 16.4562 50.6661 15.5054ZM48.2781 22.4164C48.2366 25.0098 47.4821 27.2884 45.6617 28.2532C44.8877 28.628 44.0309 28.8044 43.1699 28.7664H39.9167V16.0528C39.9167 16.0528 43.4606 16.0528 43.6268 16.0528C44.5361 16.0035 45.4433 16.1824 46.2639 16.5728C48.0151 17.5856 48.2643 19.8984 48.2781 22.4096C48.285 22.3275 48.285 22.4917 48.2781 22.4164Z" fill="#393D40"/>
<path d="M55.3525 12.6108V16.0527V20.6851V24.127V28.7594V32.2013H59.5194H68.9536V28.7594H59.5194V24.127H68.9536V20.6851H59.5194V16.0527H68.9536V12.6108H59.5194H55.3525Z" fill="#393D40"/>
<path d="M106.676 18.3655C106.667 16.8373 106.047 15.3747 104.951 14.2967C103.856 13.2186 102.373 12.6126 100.827 12.6108H92.0576V32.2013H96.2106V25.0165H100.827C102.373 25.0147 103.856 24.4087 104.951 23.3307C106.047 22.2527 106.667 20.79 106.676 19.2619V18.3655ZM102.911 19.2824C102.911 19.8903 102.666 20.4734 102.232 20.9033C101.797 21.3332 101.207 21.5747 100.592 21.5747H96.2106V16.0527H100.592C101.207 16.0527 101.797 16.2942 102.232 16.7241C102.666 17.154 102.911 17.737 102.911 18.345V19.2824Z" fill="#393D40"/>
<path d="M83.717 9.38135H87.87V12.5905C87.87 12.8319 87.773 13.0634 87.6003 13.2341C87.4277 13.4047 87.1935 13.5006 86.9494 13.5006H83.7031V9.39503L83.717 9.38135Z" fill="#DC4097"/>
<path d="M72.0479 25.6871C72.0479 26.5431 72.2185 27.3908 72.5501 28.1815C72.8817 28.9723 73.3677 29.6907 73.9803 30.2957C74.5929 30.9007 75.3201 31.3804 76.1204 31.7074C76.9207 32.0343 77.7783 32.2022 78.6442 32.2013H87.9054V16.6206H83.7524V28.7389H79.9524C79.5738 28.7416 79.1959 28.7072 78.8242 28.6363C78.3508 28.5131 77.9092 28.2921 77.5285 27.9878C77.1479 27.6834 76.837 27.3028 76.6161 26.8709C76.3354 26.005 76.2112 25.097 76.2493 24.1886V12.6108H72.0963L72.0479 25.6871Z" fill="#393D40"/>
</svg>
