<svg xmlns="http://www.w3.org/2000/svg" xmlns:xlink="http://www.w3.org/1999/xlink" width="25" height="25" version="1.1"><rect id="backgroundrect" width="100%" height="100%" x="0" y="0" fill="none" stroke="none"/>

<g class="currentLayer" style=""><title>Layer 1</title><g id="surface1" class="selected" fill-opacity="1" fill="#e87651">
<path style="stroke: none; fill-rule: nonzero; fill-opacity: 1;" d="M 2.371094 6.746094 C 1.917969 7.109375 1.492188 7.808594 1.230469 8.605469 C 0.980469 9.351562 0.878906 10.128906 0.902344 11.0625 C 0.9375 12.472656 1.222656 13.6875 1.800781 14.886719 C 2.382812 16.089844 3.164062 17.03125 4.105469 17.65625 C 4.503906 17.921875 5.046875 18.167969 5.5 18.285156 C 5.757812 18.355469 6.226562 18.363281 6.433594 18.304688 C 6.84375 18.195312 7.164062 17.933594 7.394531 17.527344 C 7.679688 17.027344 7.824219 16.558594 8.386719 14.304688 C 8.929688 12.109375 9.277344 10.96875 9.621094 10.25 C 9.832031 9.808594 10.160156 9.289062 10.546875 8.765625 C 10.699219 8.566406 10.734375 8.503906 10.703125 8.511719 C 10.574219 8.546875 10.089844 8.804688 9.929688 8.929688 C 9.203125 9.476562 8.589844 10.324219 7.832031 11.824219 C 7.429688 12.621094 7.289062 12.992188 6.746094 14.667969 C 6.402344 15.734375 6.195312 16.273438 6.058594 16.425781 C 5.910156 16.59375 5.75 16.65625 5.589844 16.605469 C 5.320312 16.515625 4.5 15.777344 4.050781 15.21875 C 3.292969 14.269531 2.773438 13.199219 2.460938 11.925781 C 2.328125 11.382812 2.246094 10.816406 2.207031 10.160156 C 2.179688 9.683594 2.191406 8.332031 2.226562 8.011719 C 2.289062 7.472656 2.382812 7.050781 2.5 6.792969 C 2.601562 6.582031 2.585938 6.574219 2.371094 6.746094 Z M 2.371094 6.746094 " id="svg_1" fill="#e87651"/>
<path style="stroke: none; fill-rule: nonzero; fill-opacity: 1;" d="M 12.542969 6.90625 C 12.066406 7.058594 11.378906 7.277344 11.011719 7.394531 C 10.644531 7.511719 10.335938 7.613281 10.328125 7.621094 C 10.300781 7.648438 10.574219 7.894531 10.691406 7.949219 C 10.773438 7.988281 10.835938 8 10.941406 8 C 11.070312 8 11.140625 7.976562 11.753906 7.753906 C 12.125 7.617188 12.445312 7.496094 12.464844 7.488281 C 12.488281 7.480469 12.503906 7.480469 12.496094 7.492188 C 12.488281 7.507812 11.890625 8.09375 11.160156 8.792969 L 10.886719 9.058594 L 11.050781 9.070312 C 11.628906 9.121094 11.820312 9.199219 12.136719 9.519531 C 12.242188 9.628906 12.304688 9.675781 12.316406 9.660156 C 12.324219 9.644531 12.472656 9.238281 12.644531 8.757812 C 12.886719 8.082031 13.292969 6.988281 13.429688 6.648438 C 13.4375 6.636719 13.433594 6.625 13.425781 6.628906 C 13.414062 6.628906 13.015625 6.753906 12.542969 6.90625 Z M 12.542969 6.90625 " id="svg_2" fill="#e87651"/>
<path style="stroke: none; fill-rule: nonzero; fill-opacity: 1;" d="M 12.789062 11.550781 C 11.5625 11.726562 10.535156 12.5625 10.160156 13.6875 C 10.011719 14.128906 9.992188 14.277344 9.992188 14.894531 C 9.992188 15.390625 9.996094 15.472656 10.039062 15.667969 C 10.144531 16.152344 10.335938 16.601562 10.59375 16.941406 C 10.789062 17.199219 11.140625 17.527344 11.425781 17.71875 C 11.8125 17.976562 12.207031 18.136719 12.6875 18.222656 C 12.960938 18.273438 13.640625 18.273438 13.917969 18.222656 C 14.585938 18.101562 15.167969 17.800781 15.652344 17.335938 C 15.929688 17.066406 16.105469 16.835938 16.257812 16.542969 C 16.515625 16.039062 16.621094 15.570312 16.625 14.917969 C 16.625 14.410156 16.578125 14.085938 16.445312 13.6875 C 16.296875 13.238281 16.046875 12.839844 15.699219 12.496094 C 15.191406 11.992188 14.632812 11.699219 13.9375 11.570312 C 13.691406 11.523438 13.046875 11.515625 12.789062 11.550781 Z M 13.679688 12.753906 C 14.335938 12.867188 14.929688 13.335938 15.167969 13.921875 C 15.28125 14.207031 15.316406 14.394531 15.328125 14.785156 C 15.351562 15.503906 15.195312 15.992188 14.824219 16.390625 C 14.628906 16.601562 14.449219 16.734375 14.199219 16.855469 C 13.886719 17.007812 13.6875 17.050781 13.292969 17.050781 C 13.011719 17.046875 12.941406 17.042969 12.769531 16.996094 C 12.558594 16.941406 12.296875 16.820312 12.132812 16.703125 C 11.984375 16.605469 11.734375 16.359375 11.632812 16.214844 C 11.507812 16.042969 11.402344 15.808594 11.339844 15.566406 C 11.269531 15.296875 11.246094 14.738281 11.300781 14.421875 C 11.339844 14.152344 11.449219 13.855469 11.574219 13.648438 C 11.828125 13.238281 12.320312 12.890625 12.796875 12.78125 C 12.878906 12.761719 12.957031 12.742188 12.96875 12.738281 C 13.019531 12.722656 13.570312 12.730469 13.679688 12.753906 Z M 13.679688 12.753906 " id="svg_3" fill="#e87651"/>
<path style="stroke: none; fill-rule: nonzero; fill-opacity: 1;" d="M 20.394531 11.535156 C 20.367188 11.539062 20.25 11.554688 20.136719 11.574219 C 19.140625 11.734375 18.183594 12.453125 17.761719 13.363281 C 17.582031 13.746094 17.496094 14.097656 17.457031 14.589844 C 17.386719 15.449219 17.59375 16.277344 18.023438 16.886719 C 18.269531 17.230469 18.695312 17.617188 19.074219 17.832031 C 19.546875 18.101562 20.046875 18.242188 20.636719 18.265625 C 21.414062 18.296875 22.136719 18.089844 22.742188 17.660156 C 23.007812 17.476562 23.398438 17.074219 23.558594 16.832031 C 23.929688 16.273438 24.105469 15.652344 24.105469 14.90625 C 24.105469 13.898438 23.8125 13.144531 23.179688 12.507812 C 22.683594 12.011719 22.140625 11.71875 21.46875 11.582031 C 21.316406 11.550781 21.152344 11.539062 20.855469 11.53125 C 20.632812 11.527344 20.425781 11.527344 20.394531 11.535156 Z M 21.359375 12.800781 C 21.914062 12.964844 22.386719 13.363281 22.605469 13.839844 C 22.890625 14.476562 22.882812 15.386719 22.582031 15.984375 C 22.234375 16.675781 21.464844 17.101562 20.644531 17.054688 C 20.265625 17.035156 19.949219 16.929688 19.632812 16.714844 C 19.027344 16.316406 18.746094 15.742188 18.742188 14.917969 C 18.742188 14.449219 18.808594 14.113281 18.960938 13.800781 C 19.214844 13.296875 19.746094 12.890625 20.324219 12.761719 C 20.429688 12.738281 20.558594 12.730469 20.824219 12.738281 C 21.132812 12.742188 21.199219 12.75 21.359375 12.800781 Z M 21.359375 12.800781 " id="svg_4" fill="#e87651"/>
</g></g></svg>