<svg xmlns="http://www.w3.org/2000/svg" version="1.0" width="1200.000000" height="1200.000000" preserveAspectRatio="xMidYMid meet" style=""><rect id="backgroundrect" width="100%" height="100%" x="0" y="0" fill="none" stroke="none"/>
<metadata>
Created by potrace 1.16, written by Peter Selinger 2001-2019
</metadata>

<g class="currentLayer" style=""><title>Layer 1</title><g transform="translate(0,1200) scale(0.10000000149011612,-0.10000000149011612) " fill="#e87651" stroke="none" id="svg_1" class="selected" fill-opacity="1">
<path d="M1138 8761 c-217 -174 -422 -509 -548 -891 -119 -359 -168 -731 -157 -1180 17 -677 154 -1260 432 -1836 278 -577 654 -1029 1105 -1329 192 -127 452 -245 670 -302 124 -33 348 -38 449 -10 196 54 349 178 461 373 137 240 206 465 475 1547 261 1054 428 1602 593 1947 101 211 258 462 445 713 72 95 90 126 74 122 -62 -18 -293 -142 -370 -201 -349 -263 -643 -669 -1007 -1389 -193 -383 -261 -562 -521 -1365 -165 -513 -266 -771 -330 -844 -72 -81 -149 -111 -225 -86 -131 43 -524 396 -739 665 -365 456 -614 970 -764 1581 -64 260 -103 532 -122 847 -13 229 -7 877 10 1032 29 258 75 461 131 584 48 102 41 105 -62 22z" id="svg_2" fill="#e87651" fill-opacity="1"/>
<path d="M6020 8685 c-228 -73 -559 -179 -735 -235 -176 -56 -323 -105 -328 -109 -13 -13 119 -130 175 -156 40 -19 70 -25 120 -25 61 0 96 11 390 119 178 65 331 122 342 127 10 4 17 3 15 -2 -4 -8 -292 -289 -642 -625 l-132 -127 80 -6 c277 -24 368 -61 521 -216 51 -51 81 -75 85 -67 4 7 75 202 158 433 116 324 312 849 378 1012 3 6 1 12 -3 11 -5 -1 -196 -61 -424 -134z" id="svg_3" fill="#e87651" fill-opacity="1"/>
<path d="M6139 6455 c-589 -84 -1083 -485 -1263 -1025 -70 -212 -80 -284 -80 -580 0 -238 2 -276 22 -370 51 -234 144 -448 267 -611 93 -124 262 -283 399 -374 186 -124 376 -200 606 -242 132 -24 457 -24 590 0 322 59 600 202 833 426 133 129 218 240 290 380 125 243 176 468 177 781 0 244 -22 398 -86 590 -72 215 -192 406 -359 572 -244 241 -512 382 -845 444 -118 22 -427 27 -551 9z m427 -576 c315 -55 601 -281 714 -562 55 -137 71 -226 77 -413 11 -345 -63 -580 -242 -772 -93 -100 -179 -164 -300 -223 -149 -73 -245 -93 -435 -93 -134 1 -168 4 -251 26 -100 27 -227 85 -306 140 -70 48 -190 166 -239 235 -60 82 -110 195 -141 312 -34 129 -44 396 -19 548 20 129 71 273 132 371 122 197 358 365 586 417 40 9 78 18 83 20 25 8 288 4 341 -6z" id="svg_4" fill="#e87651" fill-opacity="1"/>
<path d="M9790 6464 c-14 -2 -70 -11 -125 -20 -478 -76 -937 -421 -1140 -858 -86 -185 -127 -353 -146 -589 -33 -412 66 -810 272 -1102 119 -166 323 -351 505 -455 226 -129 466 -196 749 -207 374 -15 720 84 1012 290 126 89 315 281 392 397 177 268 261 567 261 925 0 484 -140 846 -444 1151 -238 238 -499 379 -821 444 -74 15 -151 22 -295 25 -107 2 -206 2 -220 -1z m463 -608 c266 -80 493 -270 597 -500 138 -304 133 -741 -11 -1029 -167 -332 -535 -536 -929 -514 -183 11 -334 61 -486 163 -290 192 -426 467 -427 864 -1 224 31 386 105 535 121 242 377 438 653 499 52 12 113 15 240 12 149 -3 181 -6 258 -30z" id="svg_5" fill="#e87651" fill-opacity="1"/>
</g></g></svg>