<?xml version="1.0" encoding="utf-8"?>
<!-- Generator: Adobe Illustrator 16.0.0, SVG Export Plug-In . SVG Version: 6.00 Build 0)  -->
<!DOCTYPE svg PUBLIC "-//W3C//DTD SVG 1.1//EN" "http://www.w3.org/Graphics/SVG/1.1/DTD/svg11.dtd">
<svg version="1.1" id="Layer_1" xmlns="http://www.w3.org/2000/svg" xmlns:xlink="http://www.w3.org/1999/xlink" x="0px" y="0px"
	 width="63.99px" height="48px" viewBox="0 0 63.99 48" enable-background="new 0 0 63.99 48" xml:space="preserve">
<g>
	<g>
		<path fill="#464646" d="M49.998,25.5c-3.584,0-6.5-2.916-6.5-6.5s2.916-6.5,6.5-6.5s6.5,2.916,6.5,6.5S53.582,25.5,49.998,25.5z
			 M49.998,13.5c-3.033,0-5.5,2.467-5.5,5.5s2.467,5.5,5.5,5.5s5.5-2.467,5.5-5.5S53.031,13.5,49.998,13.5z"/>
	</g>
	<g>
		<path fill="#464646" d="M49.986,40c-0.458,0-0.895-0.146-1.265-0.423c-2.443-1.833-10.468-8.634-11.19-19.217
			c-0.496-7.258,4.565-13.675,11.282-14.305c7.425-0.693,13.686,5.301,13.685,12.771c0,11.424-8.6,18.767-11.236,20.745
			C50.888,39.852,50.447,40,49.986,40z M49.988,8C49.662,8,49.333,8.015,49,8.046c-5.646,0.53-9.896,5.992-9.474,12.177
			c0.665,9.735,8.124,16.049,10.395,17.753L49.986,38c0.025,0,0.051-0.01,0.076-0.028c2.448-1.837,10.436-8.649,10.436-19.146
			C60.498,12.856,55.783,8,49.988,8z"/>
	</g>
	<g>
		<g>
			<path fill="#464646" d="M21.998,13.875c-2.619,0-4.75-2.075-4.75-4.625s2.131-4.625,4.75-4.625s4.75,2.075,4.75,4.625
				S24.617,13.875,21.998,13.875z M21.998,5.625c-2.068,0-3.75,1.626-3.75,3.625s1.682,3.625,3.75,3.625s3.75-1.626,3.75-3.625
				S24.066,5.625,21.998,5.625z"/>
		</g>
		<g>
			<path fill="#464646" d="M21.989,24c-0.383,0-0.75-0.115-1.063-0.333c-1.833-1.279-7.858-6.028-8.403-13.455
				c-0.379-5.164,3.471-9.727,8.582-10.172c5.644-0.496,10.394,3.776,10.394,9.091c0,8.023-6.458,13.152-8.438,14.533
				C22.745,23.883,22.375,24,21.989,24z M21.991,2c-0.235,0-0.473,0.01-0.713,0.031c-4.027,0.351-7.06,3.955-6.76,8.034
				c0.473,6.445,5.735,10.677,7.473,11.905c1.862-1.314,7.507-5.881,7.507-12.84C29.498,5.199,26.13,2,21.991,2z"/>
		</g>
	</g>
	<g>
		<path fill="#464646" d="M60.904,48H3.092c-1.027,0-1.984-0.498-2.561-1.332c-0.559-0.809-0.686-1.839-0.338-2.755l7.144-22.88
			C7.803,19.794,8.968,19,10.255,19h3.446c0.552,0,1,0.448,1,1s-0.448,1-1,1h-3.446c-0.46,0-0.874,0.275-1.029,0.685l-7.144,22.88
			c-0.135,0.362-0.094,0.694,0.094,0.966C2.383,45.829,2.716,46,3.092,46h57.813c0.375,0,0.708-0.171,0.914-0.468
			c0.188-0.272,0.23-0.605,0.114-0.912l-3.641-8.212c-0.224-0.505,0.004-1.096,0.509-1.319c0.505-0.225,1.096,0.004,1.319,0.509
			l3.662,8.264c0.368,0.969,0.241,1.999-0.318,2.808C62.888,47.502,61.931,48,60.904,48z"/>
	</g>
	<g>
		<path fill="#464646" d="M34.498,21h-4.5c-0.552,0-1-0.448-1-1s0.448-1,1-1h4.5c0.552,0,1,0.448,1,1S35.05,21,34.498,21z"/>
	</g>
</g>
</svg>
