<svg width="65" height="65" viewBox="0 0 65 65" fill="none" xmlns="http://www.w3.org/2000/svg">
    <g clip-path="url(#clip0)">
        <path d="M52.0951 20.2076C50.6412 20.2076 49.4499 21.36 49.4499 22.8047C49.4499 32.0577 41.7947 39.5737 32.3701 39.5737C22.9456 39.5737 15.2904 32.0577 15.2904 22.8047V16.2862H25.9937C27.4477 16.2862 28.6388 15.134 28.6388 13.6892C28.6388 12.2617 27.4651 11.0922 25.9937 11.0922H15.2904V2.63027C15.2904 1.20275 14.1167 0.0332184 12.6452 0.0332184C11.1912 0.0332184 10 1.18555 10 2.63027V22.7875C10 34.8957 20.0377 44.7506 32.3701 44.7506C44.7026 44.7506 54.7403 34.8957 54.7403 22.7875C54.7403 21.3771 53.5666 20.2076 52.0951 20.2076Z" fill="white"/>
        <path d="M36.0842 16.2846C36.7673 16.2846 37.4505 16.0094 37.941 15.5281C38.4315 15.0466 38.7118 14.3761 38.7118 13.6884C38.7118 13.0178 38.4315 12.3473 37.941 11.8487C37.8183 11.7284 37.6783 11.6252 37.5381 11.522C37.3979 11.4361 37.2402 11.3501 37.0826 11.2813C36.925 11.2126 36.7497 11.161 36.5921 11.1266C36.2592 11.0578 35.9089 11.0578 35.5586 11.1266C35.3834 11.161 35.2257 11.2126 35.0681 11.2813C34.9105 11.3501 34.7527 11.4189 34.6127 11.522C34.4725 11.608 34.3323 11.7284 34.2097 11.8487C33.7192 12.3301 33.439 13.0007 33.439 13.6884C33.439 14.3761 33.7192 15.0466 34.2097 15.5281C34.7002 16.0094 35.3834 16.2846 36.0842 16.2846Z" fill="white"/>
        <path d="M46.157 16.2841C46.8402 16.2841 47.5233 16.009 48.0314 15.5277C48.5219 15.0462 48.8022 14.3757 48.8022 13.6879C48.8022 13.0174 48.5219 12.3469 48.0314 11.8654C47.9087 11.7451 47.7687 11.6419 47.6285 11.5388C47.4883 11.4528 47.3307 11.3668 47.173 11.2981C47.0154 11.2293 46.8402 11.1777 46.6825 11.1433C46.3497 11.0746 45.9993 11.0746 45.649 11.1433C45.4738 11.1777 45.3162 11.2293 45.1585 11.2981C45.0009 11.3668 44.8431 11.4356 44.7031 11.5388C44.5629 11.6247 44.4227 11.7451 44.3001 11.8654C43.8096 12.3469 43.5294 13.0174 43.5294 13.6879C43.5294 14.3757 43.8096 15.0462 44.3001 15.5277C44.7906 16.009 45.4738 16.2841 46.157 16.2841Z" fill="white"/>
    </g>
    <g clip-path="url(#clip1)">
        <path d="M10.7711 48.2543C10.3505 48.2543 10 48.6144 10 49.0465V62.2075C10 62.6396 10.3505 62.9997 10.7711 62.9997C11.1917 62.9997 11.5422 62.6396 11.5422 62.2075V49.0465C11.5422 48.6144 11.1917 48.2543 10.7711 48.2543Z" fill="white"/>
        <path d="M53.9692 52.2153C53.5486 52.2153 53.1981 52.5754 53.1981 53.0075V60.2992C53.1981 61.9735 51.9539 63.3238 50.4468 63.3238C48.9222 63.3238 47.6954 61.9735 47.6954 60.2992V57.7786V57.7606V56.8244C47.6954 54.2858 45.7677 52.2153 43.4019 52.2153C41.0361 52.2153 39.1084 54.2858 39.1084 56.8244V57.7606V57.7786V60.2992C39.1084 61.9735 37.8641 63.3238 36.357 63.3238H27.069C25.5444 63.3238 24.3176 61.9735 24.3176 60.2992V49.0466C24.3176 48.6145 23.9671 48.2544 23.5466 48.2544C23.1259 48.2544 22.7755 48.6145 22.7755 49.0466V60.2992C22.7755 62.8378 24.7032 64.9083 27.069 64.9083H36.357C37.8116 64.9083 39.1084 64.1161 39.8795 62.9278C40.6505 64.1161 41.9474 64.9083 43.4019 64.9083C44.8565 64.9083 46.1532 64.1161 46.9244 62.9278C47.6954 64.1161 48.9922 64.9083 50.4468 64.9083C52.8126 64.9083 54.7403 62.8378 54.7403 60.2992V53.0075C54.7403 52.5754 54.4073 52.2153 53.9692 52.2153ZM43.4019 63.3238C41.8773 63.3238 40.6505 61.9735 40.6505 60.2992V57.7786V57.7606V56.8244C40.6505 55.15 41.8948 53.7997 43.4019 53.7997C44.9265 53.7997 46.1532 55.15 46.1532 56.8244V57.7606V57.7786V60.2992C46.1532 61.9735 44.909 63.3238 43.4019 63.3238Z" fill="white"/>
        <path d="M19.989 52.2152C19.5683 52.2152 19.2179 52.5753 19.2179 53.0074V60.299C19.2179 61.9734 17.9736 63.3237 16.4665 63.3237C15.8532 63.3237 15.2748 63.1077 14.8017 62.7116C14.4687 62.4415 13.978 62.4775 13.7152 62.8196C13.4523 63.1617 13.4873 63.6658 13.8203 63.9359C14.5739 64.584 15.5027 64.9081 16.4665 64.9081C18.8323 64.9081 20.76 62.8376 20.76 60.299V53.0074C20.76 52.5753 20.4095 52.2152 19.989 52.2152Z" fill="white"/>
        <path d="M52.0764 50.9555C52.6282 50.9555 53.0754 50.496 53.0754 49.9292C53.0754 49.3625 52.6282 48.903 52.0764 48.903C51.5248 48.903 51.0775 49.3625 51.0775 49.9292C51.0775 50.496 51.5248 50.9555 52.0764 50.9555Z" fill="white"/>
        <path d="M50.1461 50.3164C50.3572 49.7928 50.1152 49.1925 49.6055 48.9756C49.0958 48.7587 48.5115 49.0073 48.3004 49.531C48.0892 50.0546 48.3313 50.6549 48.841 50.8718C49.3507 51.0887 49.935 50.8401 50.1461 50.3164Z" fill="white"/>
    </g>
    <defs>
        <clipPath id="clip0">
            <rect width="44.7403" height="44.7174" fill="white" transform="translate(10 0.0332184)"/>
        </clipPath>
        <clipPath id="clip1">
            <rect width="44.7403" height="16.8745" fill="white" transform="translate(10 48.1255)"/>
        </clipPath>
    </defs>
</svg>
