<svg width="65" height="65" viewBox="0 0 65 65" fill="none" xmlns="http://www.w3.org/2000/svg">
    <g clip-path="url(#clip0)">
        <path d="M52.0951 20.2179C50.6412 20.2179 49.4499 21.3709 49.4499 22.8163C49.4499 32.0741 41.7947 39.5939 32.3701 39.5939C22.9456 39.5939 15.2904 32.0741 15.2904 22.8163V16.2945H25.9937C27.4477 16.2945 28.6388 15.1417 28.6388 13.6962C28.6388 12.268 27.4651 11.0978 25.9937 11.0978H15.2904V2.6316C15.2904 1.20335 14.1167 0.0332184 12.6452 0.0332184C11.1912 0.0332184 10 1.18614 10 2.6316V22.7991C10 34.9135 20.0377 44.7735 32.3701 44.7735C44.7026 44.7735 54.7403 34.9135 54.7403 22.7991C54.7403 21.388 53.5666 20.2179 52.0951 20.2179Z" fill="white"/>
        <path d="M36.0842 16.2929C36.7673 16.2929 37.4505 16.0176 37.941 15.536C38.4315 15.0543 38.7118 14.3834 38.7118 13.6954C38.7118 13.0245 38.4315 12.3536 37.941 11.8547C37.8183 11.7343 37.6783 11.6311 37.5381 11.5279C37.3979 11.4419 37.2402 11.3559 37.0826 11.2871C36.925 11.2183 36.7497 11.1667 36.5921 11.1323C36.2592 11.0635 35.9089 11.0635 35.5586 11.1323C35.3834 11.1667 35.2257 11.2183 35.0681 11.2871C34.9105 11.3559 34.7527 11.4247 34.6127 11.5279C34.4725 11.6139 34.3323 11.7343 34.2097 11.8547C33.7192 12.3364 33.439 13.0073 33.439 13.6954C33.439 14.3834 33.7192 15.0543 34.2097 15.536C34.7002 16.0176 35.3834 16.2929 36.0842 16.2929Z" fill="white"/>
        <path d="M46.157 16.2924C46.8402 16.2924 47.5233 16.0171 48.0314 15.5356C48.5219 15.0539 48.8022 14.383 48.8022 13.6949C48.8022 13.024 48.5219 12.3532 48.0314 11.8715C47.9087 11.7511 47.7687 11.6479 47.6285 11.5447C47.4883 11.4586 47.3307 11.3726 47.173 11.3038C47.0154 11.235 46.8402 11.1834 46.6825 11.149C46.3497 11.0802 45.9993 11.0802 45.649 11.149C45.4738 11.1834 45.3162 11.235 45.1585 11.3038C45.0009 11.3726 44.8431 11.4415 44.7031 11.5447C44.5629 11.6307 44.4227 11.7511 44.3001 11.8715C43.8096 12.3532 43.5294 13.024 43.5294 13.6949C43.5294 14.383 43.8096 15.0539 44.3001 15.5356C44.7906 16.0171 45.4738 16.2924 46.157 16.2924Z" fill="white"/>
    </g>
    <g clip-path="url(#clip1)">
        <path d="M8.66966 59.3726C8.23599 59.3726 7.87458 59.7346 7.87458 60.1691C7.87458 61.853 6.59162 63.2109 5.0376 63.2109C3.4655 63.2109 2.2006 61.853 2.2006 60.1691V54.6469H7.27827C7.71195 54.6469 8.07336 54.2848 8.07336 53.8503C8.07336 53.4157 7.71195 53.0536 7.27827 53.0536H2.2006V48.8531C2.2006 48.4186 1.8392 48.0565 1.40553 48.0565C0.971846 48.0565 0.610443 48.4186 0.610443 48.8531V60.1691C0.610443 62.7221 2.59814 64.8042 5.0376 64.8042C7.47704 64.8042 9.46471 62.7221 9.46471 60.1691C9.46471 59.7346 9.10331 59.3726 8.66966 59.3726Z" fill="white"/>
        <path d="M55.5613 54.0664C55.8324 53.7224 55.7962 53.2154 55.4529 52.9439C54.6758 52.292 53.7181 51.9661 52.7243 51.9661C50.2848 51.9661 48.2971 54.0483 48.2971 56.6012V63.934C48.2971 64.3685 48.6585 64.7307 49.0923 64.7307C49.5259 64.7307 49.8873 64.3685 49.8873 63.934V56.6012C49.8873 54.9174 51.1703 53.5594 52.7243 53.5594C53.3567 53.5594 53.953 53.7767 54.441 54.175C54.7843 54.4647 55.2903 54.4104 55.5613 54.0664Z" fill="white"/>
        <path d="M32.6847 51.9661C31.185 51.9661 29.8478 52.7628 29.0527 53.9578C28.2576 52.7628 26.9204 51.9661 25.4206 51.9661C22.9812 51.9661 20.9935 54.0483 20.9935 56.6012V63.934C20.9935 64.3685 21.3549 64.7307 21.7885 64.7307C22.2223 64.7307 22.5837 64.3685 22.5837 63.934V56.6012C22.5837 54.9174 23.8666 53.5594 25.4206 53.5594C26.9747 53.5594 28.2576 54.9174 28.2576 56.6012V63.934C28.2576 64.3685 28.619 64.7307 29.0527 64.7307C29.4864 64.7307 29.8478 64.3685 29.8478 63.934V56.6012C29.8478 54.9174 31.1308 53.5594 32.6847 53.5594C34.2569 53.5594 35.5218 54.9174 35.5218 56.6012V63.934C35.5218 64.3685 35.8832 64.7307 36.3168 64.7307C36.7505 64.7307 37.1119 64.3685 37.1119 63.934V56.6012C37.1119 54.0483 35.1242 51.9661 32.6847 51.9661Z" fill="white"/>
        <path d="M15.0848 51.9661C14.091 51.9661 13.1332 52.3102 12.3562 52.9439C12.0129 53.2154 11.9587 53.7224 12.2478 54.0664C12.5189 54.4104 13.0249 54.4647 13.3682 54.175C13.8741 53.7586 14.4705 53.5594 15.0848 53.5594C15.1752 53.5594 15.2655 53.5594 15.3559 53.5775C15.392 53.5775 15.4101 53.5775 15.4462 53.5957C15.5004 53.5957 15.5727 53.6138 15.6269 53.6319C15.663 53.6319 15.6991 53.65 15.7173 53.65C15.7715 53.6681 15.8257 53.6862 15.8799 53.6862C15.9161 53.7043 15.9522 53.7043 15.9702 53.7224C16.0244 53.7405 16.0787 53.7586 16.1148 53.7767C16.1509 53.7948 16.169 53.7948 16.2051 53.8129C16.2594 53.831 16.3136 53.8672 16.3497 53.8853C16.3678 53.9034 16.4039 53.9216 16.422 53.9216C16.4762 53.9578 16.5485 53.994 16.6027 54.0302C16.6208 54.0483 16.6389 54.0483 16.6389 54.0664C16.7111 54.1207 16.7834 54.175 16.8376 54.2294C16.8557 54.2475 16.8737 54.2656 16.8918 54.2837C16.946 54.3199 16.9822 54.3742 17.0364 54.4104C17.0544 54.4285 17.0725 54.4647 17.1086 54.4828C17.1448 54.519 17.181 54.5734 17.2171 54.6096C17.2351 54.6458 17.2532 54.6639 17.2893 54.7001C17.3255 54.7363 17.3617 54.7906 17.3797 54.8268C17.3978 54.8631 17.4158 54.8812 17.4339 54.9174C17.47 54.9717 17.4881 55.0079 17.5242 55.0622C17.5424 55.0984 17.5604 55.1165 17.5785 55.1527C17.6146 55.2071 17.6327 55.2795 17.6507 55.3338C17.6688 55.3519 17.6688 55.3881 17.6869 55.4062C17.7231 55.4968 17.7592 55.5873 17.7772 55.6597C17.7772 55.6778 17.7772 55.6959 17.7953 55.714C17.8134 55.7683 17.8314 55.8408 17.8495 55.8951H14.886C12.555 55.8951 10.6577 57.7961 10.6577 60.1318C10.6577 62.6848 12.6454 64.7669 15.0848 64.7669C16.2232 64.7669 17.199 64.3867 17.9218 63.9883C17.9399 64.4229 18.2832 64.7669 18.7169 64.7669C19.1505 64.7669 19.5119 64.4047 19.5119 63.9702V62.7572V59.8421V56.5831C19.5119 54.0483 17.5242 51.9661 15.0848 51.9661ZM12.2478 60.168C12.2478 58.7015 13.4404 57.5246 14.886 57.5246H17.9218V59.8421V62.1053C17.47 62.4674 16.4039 63.2098 15.0848 63.2098C13.5127 63.2098 12.2478 61.8519 12.2478 60.168Z" fill="white"/>
        <path d="M42.4785 51.9661C41.4847 51.9661 40.527 52.3102 39.7499 52.9439C39.4066 53.2154 39.3524 53.7224 39.6416 54.0664C39.9126 54.4104 40.4186 54.4647 40.7619 54.175C41.2679 53.7586 41.8642 53.5594 42.4785 53.5594C42.5689 53.5594 42.6592 53.5594 42.7496 53.5775C42.7857 53.5775 42.8038 53.5775 42.8399 53.5957C42.8942 53.5957 42.9664 53.6138 43.0206 53.6319C43.0568 53.6319 43.0929 53.65 43.111 53.65C43.1652 53.6681 43.2194 53.6862 43.2736 53.6862C43.3098 53.7043 43.3459 53.7043 43.364 53.7224C43.4182 53.7405 43.4724 53.7586 43.5085 53.7767C43.5447 53.7948 43.5627 53.7948 43.5989 53.8129C43.6531 53.831 43.7073 53.8672 43.7434 53.8853C43.7615 53.9034 43.7977 53.9216 43.8157 53.9216C43.8699 53.9578 43.9422 53.994 43.9964 54.0302C44.0145 54.0483 44.0326 54.0483 44.0326 54.0664C44.1048 54.1207 44.1771 54.175 44.2313 54.2294C44.2494 54.2475 44.2675 54.2656 44.2855 54.2837C44.3398 54.3199 44.3759 54.3742 44.4301 54.4104C44.4482 54.4285 44.4662 54.4647 44.5024 54.4828C44.5385 54.519 44.5747 54.5734 44.6108 54.6096C44.6289 54.6458 44.6469 54.6639 44.6831 54.7001C44.7192 54.7363 44.7554 54.7906 44.7734 54.8268C44.7915 54.8631 44.8096 54.8812 44.8276 54.9174C44.8638 54.9717 44.8819 55.0079 44.918 55.0622C44.9361 55.0984 44.9541 55.1165 44.9722 55.1527C45.0083 55.2071 45.0264 55.2795 45.0445 55.3338C45.0626 55.3519 45.0626 55.3881 45.0807 55.4062C45.1168 55.4968 45.1529 55.5873 45.171 55.6597C45.171 55.6778 45.171 55.6959 45.189 55.714C45.2071 55.7683 45.2252 55.8408 45.2433 55.8951H42.2798C39.9487 55.8951 38.0514 57.7961 38.0514 60.1318C38.0514 62.6848 40.0391 64.7669 42.4785 64.7669C43.617 64.7669 44.5927 64.3867 45.3155 63.9883C45.3336 64.4229 45.6769 64.7669 46.1106 64.7669C46.5443 64.7669 46.9057 64.4047 46.9057 63.9702V62.7572V59.8421V56.5831C46.9057 54.0483 44.918 51.9661 42.4785 51.9661ZM39.6235 60.168C39.6235 58.7015 40.8161 57.5246 42.2617 57.5246H45.2975V59.8421V62.1053C44.8457 62.4674 43.7796 63.2098 42.4605 63.2098C40.9065 63.2098 39.6235 61.8519 39.6235 60.168Z" fill="white"/>
        <path d="M59.735 51.9661C58.7412 51.9661 57.7835 52.3102 57.0065 52.9439C56.6631 53.2154 56.6089 53.7224 56.8981 54.0664C57.1691 54.4104 57.6751 54.4647 58.0184 54.175C58.5244 53.7586 59.1207 53.5594 59.735 53.5594C59.8254 53.5594 59.9157 53.5594 60.0061 53.5775C60.0422 53.5775 60.0603 53.5775 60.0964 53.5957C60.1507 53.5957 60.2229 53.6138 60.2771 53.6319C60.3133 53.6319 60.3495 53.65 60.3675 53.65C60.4217 53.6681 60.4759 53.6862 60.5302 53.6862C60.5663 53.7043 60.6024 53.7043 60.6205 53.7224C60.6747 53.7405 60.7289 53.7586 60.765 53.7767C60.8012 53.7948 60.8192 53.7948 60.8553 53.8129C60.9096 53.831 60.9638 53.8672 60.9999 53.8853C61.018 53.9034 61.0542 53.9216 61.0723 53.9216C61.1264 53.9578 61.1987 53.994 61.253 54.0302C61.271 54.0483 61.2891 54.0483 61.2891 54.0664C61.3613 54.1207 61.4337 54.175 61.4878 54.2294C61.5059 54.2475 61.524 54.2656 61.542 54.2837C61.5963 54.3199 61.6324 54.3742 61.6866 54.4104C61.7047 54.4285 61.7227 54.4647 61.7589 54.4828C61.7951 54.519 61.8312 54.5734 61.8673 54.6096C61.8854 54.6458 61.9034 54.6639 61.9396 54.7001C61.9758 54.7363 62.0119 54.7906 62.0299 54.8268C62.048 54.8631 62.0661 54.8812 62.0841 54.9174C62.1203 54.9717 62.1384 55.0079 62.1745 55.0622C62.1926 55.0984 62.2106 55.1165 62.2287 55.1527C62.2648 55.2071 62.2829 55.2614 62.301 55.3338C62.3191 55.3519 62.3191 55.3881 62.3372 55.4062C62.3733 55.4968 62.3913 55.5692 62.4275 55.6597C62.4275 55.6778 62.4455 55.6959 62.4455 55.714C62.4636 55.7683 62.4817 55.8408 62.4817 55.8951H59.5182C57.1872 55.8951 55.2898 57.7961 55.2898 60.1318C55.2898 62.6848 57.2775 64.7669 59.717 64.7669C60.8553 64.7669 61.8312 64.3867 62.554 63.9883C62.572 64.4229 62.9154 64.7669 63.349 64.7669C63.7828 64.7669 64.1442 64.4047 64.1442 63.9702V62.7572V59.8421V56.5831C64.1622 54.0483 62.1745 51.9661 59.735 51.9661ZM56.8981 60.168C56.8981 58.7015 58.0907 57.5246 59.5363 57.5246H62.572V59.8421V62.1053C62.1203 62.4674 61.0542 63.2098 59.735 63.2098C58.163 63.2098 56.8981 61.8519 56.8981 60.168Z" fill="white"/>
    </g>
    <defs>
        <clipPath id="clip0">
            <rect width="44.7403" height="44.7403" fill="white" transform="translate(10 0.0332184)"/>
        </clipPath>
        <clipPath id="clip1">
            <rect width="64.144" height="16.88" fill="white" transform="translate(0 48)"/>
        </clipPath>
    </defs>
</svg>
