<svg width="30" height="30" viewBox="0 0 30 30" fill="none" xmlns="http://www.w3.org/2000/svg">
    <path d="M30 24H0V6H30V24ZM1.0084 23.0088H28.9916V6.99119H1.0084V23.0088Z" fill="#172425"/>
    <path d="M8.21843 20.6696C5.04196 20.6696 2.46045 18.1322 2.46045 15.0099C2.46045 11.8877 5.04196 9.3403 8.21843 9.3403C11.3949 9.3403 13.9764 11.8777 13.9764 15C13.9764 18.1222 11.3949 20.6696 8.21843 20.6696ZM8.21843 10.3315C5.59658 10.3315 3.46885 12.4229 3.46885 15C3.46885 17.5771 5.59658 19.6685 8.21843 19.6685C10.8403 19.6685 12.968 17.5771 12.968 15C12.968 12.4229 10.8403 10.3315 8.21843 10.3315Z" fill="#172425"/>
    <path d="M4.12427 18.2412C5.09233 19.4207 6.5646 20.174 8.21838 20.174C9.88225 20.174 11.3545 19.4207 12.3226 18.2313C11.3545 17.0518 9.88225 16.2985 8.22847 16.2985C6.5646 16.2985 5.09233 17.0617 4.12427 18.2412Z" fill="#172425"/>
    <path d="M8.22999 15.6841C9.49422 15.6841 10.5191 14.6767 10.5191 13.4341C10.5191 12.1914 9.49422 11.1841 8.22999 11.1841C6.96577 11.1841 5.94092 12.1914 5.94092 13.4341C5.94092 14.6767 6.96577 15.6841 8.22999 15.6841Z" fill="#172425"/>
    <path d="M26.7612 11.4526H15.7612V13.4526H26.7612V11.4526Z" fill="#172425"/>
    <path d="M22.7612 15.2773H15.7612V17.2773H22.7612V15.2773Z" fill="#172425"/>
</svg>
