<svg width="18" height="30" viewBox="0 0 18 30" fill="none" xmlns="http://www.w3.org/2000/svg">
    <path d="M18 30H0V0H18V30ZM0.991189 28.9916H17.0088V1.0084H0.991189V28.9916Z" fill="#172425"/>
    <path d="M0.499023 5.08092L0.499023 21.0439H17.5078V5.08092L0.499023 5.08092Z" fill="#172425"/>
    <path d="M8.99995 27.5395C7.85017 27.5395 6.91846 26.5916 6.91846 25.4218C6.91846 24.2521 7.85017 23.3042 8.99995 23.3042C10.1497 23.3042 11.0815 24.2521 11.0815 25.4218C11.0815 26.5916 10.1497 27.5395 8.99995 27.5395ZM8.99995 24.3126C8.40524 24.3126 7.90965 24.8067 7.90965 25.4218C7.90965 26.0269 8.39533 26.5311 8.99995 26.5311C9.59467 26.5311 10.0903 26.037 10.0903 25.4218C10.0903 24.8168 9.60458 24.3126 8.99995 24.3126Z" fill="#172425"/>
</svg>
