<svg width="106" height="37" viewBox="0 0 106 37" fill="none" xmlns="http://www.w3.org/2000/svg">
    <rect width="106" height="37" rx="18.5" fill="#6DC8BF"/>
    <rect width="74" height="25" transform="translate(16 6)" fill="#6DC8BF"/>
    <path d="M48.5547 10.2938C48.1583 10.2938 47.828 10.6495 47.828 11.0762V24.0752C47.828 24.5019 48.1583 24.8576 48.5547 24.8576C48.9512 24.8576 49.2816 24.5019 49.2816 24.0752V11.0762C49.2816 10.6495 48.9512 10.2938 48.5547 10.2938Z" fill="white"/>
    <path d="M89.2731 14.2059C88.8766 14.2059 88.5463 14.5616 88.5463 14.9883V22.1902C88.5463 23.844 87.3734 25.1777 85.9528 25.1777C84.5156 25.1777 83.3594 23.844 83.3594 22.1902V19.7007V19.6829V18.7582C83.3594 16.2509 81.5424 14.2059 79.3123 14.2059C77.0823 14.2059 75.2652 16.2509 75.2652 18.7582V19.6829V19.7007V22.1902C75.2652 23.844 74.0925 25.1777 72.6718 25.1777H63.917C62.4799 25.1777 61.3236 23.844 61.3236 22.1902V11.0762C61.3236 10.6495 60.9932 10.2938 60.5967 10.2938C60.2003 10.2938 59.8699 10.6495 59.8699 11.0762V22.1902C59.8699 24.6976 61.687 26.7425 63.917 26.7425H72.6718C74.0429 26.7425 75.2652 25.9601 75.992 24.7865C76.7189 25.9601 77.9413 26.7425 79.3123 26.7425C80.6834 26.7425 81.9058 25.9601 82.6325 24.7865C83.3594 25.9601 84.5818 26.7425 85.9528 26.7425C88.1828 26.7425 89.9998 24.6976 89.9998 22.1902V14.9883C89.9998 14.5616 89.686 14.2059 89.2731 14.2059ZM79.3123 25.1777C77.8752 25.1777 76.7189 23.844 76.7189 22.1902V19.7007V19.6829V18.7582C76.7189 17.1045 77.8917 15.7708 79.3123 15.7708C80.7494 15.7708 81.9058 17.1045 81.9058 18.7582V19.6829V19.7007V22.1902C81.9058 23.844 80.7329 25.1777 79.3123 25.1777Z" fill="white"/>
    <path d="M57.2434 14.206C56.847 14.206 56.5166 14.5616 56.5166 14.9884V22.1903C56.5166 23.844 55.3437 25.1777 53.9232 25.1777C53.345 25.1777 52.7999 24.9643 52.3539 24.5731C52.0401 24.3063 51.5775 24.3419 51.3298 24.6798C51.082 25.0177 51.115 25.5156 51.4289 25.7823C52.1391 26.4225 53.0146 26.7426 53.9232 26.7426C56.1532 26.7426 57.9703 24.6976 57.9703 22.1903V14.9884C57.9703 14.5616 57.6399 14.206 57.2434 14.206Z" fill="white"/>
    <path d="M87.4891 12.9613C88.0092 12.9613 88.4307 12.5075 88.4307 11.9477C88.4307 11.3879 88.0092 10.9341 87.4891 10.9341C86.9691 10.9341 86.5475 11.3879 86.5475 11.9477C86.5475 12.5075 86.9691 12.9613 87.4891 12.9613Z" fill="white"/>
    <path d="M85.6697 12.3302C85.8687 11.813 85.6405 11.2201 85.1601 11.0059C84.6796 10.7916 84.1288 11.0372 83.9298 11.5544C83.7308 12.0716 83.959 12.6646 84.4394 12.8788C84.9199 13.093 85.4706 12.8474 85.6697 12.3302Z" fill="white"/>
    <path d="M38.4596 17.2788C37.6839 17.2788 37.0483 17.9231 37.0483 18.7308C37.0483 23.9038 32.9639 28.1057 27.9355 28.1057C22.9071 28.1057 18.8226 23.9038 18.8226 18.7308V15.0865H24.5334C25.3091 15.0865 25.9446 14.4423 25.9446 13.6346C25.9446 12.8365 25.3184 12.1827 24.5334 12.1827H18.8226V7.45193C18.8226 6.65385 18.1964 6 17.4113 6C16.6356 6 16 6.64423 16 7.45193V18.7212C16 25.4904 21.3555 31 27.9355 31C34.5154 31 39.871 25.4904 39.871 18.7212C39.871 17.9327 39.2448 17.2788 38.4596 17.2788Z" fill="white"/>
    <path d="M29.9172 15.0856C30.2817 15.0856 30.6462 14.9318 30.9079 14.6627C31.1696 14.3935 31.3191 14.0186 31.3191 13.6341C31.3191 13.2593 31.1696 12.8844 30.9079 12.6056C30.8425 12.5384 30.7677 12.4807 30.6929 12.423C30.6182 12.375 30.534 12.3269 30.4499 12.2884C30.3658 12.25 30.2723 12.2212 30.1882 12.2019C30.0106 12.1635 29.8237 12.1635 29.6368 12.2019C29.5433 12.2212 29.4592 12.25 29.3751 12.2884C29.291 12.3269 29.2069 12.3653 29.1321 12.423C29.0573 12.4711 28.9825 12.5384 28.9171 12.6056C28.6554 12.8748 28.5058 13.2497 28.5058 13.6341C28.5058 14.0186 28.6554 14.3935 28.9171 14.6627C29.1788 14.9318 29.5433 15.0856 29.9172 15.0856Z" fill="white"/>
    <path d="M35.2912 15.0853C35.6558 15.0853 36.0203 14.9315 36.2913 14.6624C36.553 14.3932 36.7026 14.0184 36.7026 13.6339C36.7026 13.259 36.553 12.8841 36.2913 12.615C36.2259 12.5477 36.1511 12.49 36.0764 12.4324C36.0016 12.3843 35.9175 12.3362 35.8333 12.2978C35.7492 12.2593 35.6558 12.2305 35.5716 12.2113C35.394 12.1728 35.2071 12.1728 35.0201 12.2113C34.9267 12.2305 34.8425 12.2593 34.7584 12.2978C34.6743 12.3362 34.5902 12.3747 34.5154 12.4324C34.4407 12.4804 34.3659 12.5477 34.3005 12.615C34.0388 12.8841 33.8892 13.259 33.8892 13.6339C33.8892 14.0184 34.0388 14.3932 34.3005 14.6624C34.5622 14.9315 34.9267 15.0853 35.2912 15.0853Z" fill="white"/>
</svg>
